# xmcd
#
# Track frame offsets: 
#        150
#        14833
#        29755
#        44020
#        55783
#        67803
#        87238
#        104823
#        115868
#        134850
#        145975
#        161133
#        171060
#        187021
#        206556
#
# Disc length: 2922 seconds
#
# Revision: 2
# Processed by: cddbd v1.5.2PL0 Copyright (c) Steve Scherf et al.
# Submitted via: ExactAudioCopy v0.95b4
#
DISCID=ec0b680f
DTITLE=Doug Stevens - When love is right
DYEAR=1900
DGENRE=Country
TTITLE0=Girlfriends
TTITLE1=Lil' Ol' cowgirl
TTITLE2=I can't bear it
TTITLE3=In a sweet gum tree
TTITLE4=Proud to be an American
TTITLE5=Lil' bit blue
TTITLE6=Pump'n'Go
TTITLE7=When Love is Right
TTITLE8=Livin a Lie in Georgia
TTITLE9=Can't get it right
TTITLE10=Little fish
TTITLE11=Daisy
TTITLE12=Someone I should know
TTITLE13=On this bed
TTITLE14=Hang your clothes in the closet
EXTD=
EXTT0=
EXTT1=
EXTT2=
EXTT3=
EXTT4=
EXTT5=
EXTT6=
EXTT7=
EXTT8=
EXTT9=
EXTT10=
EXTT11=
EXTT12=
EXTT13=
EXTT14=
PLAYORDER=
